<svg width="44" height="44" viewBox="0 0 44 44" fill="none" xmlns="http://www.w3.org/2000/svg">
<path fill-rule="evenodd" clip-rule="evenodd" d="M9.20958 22C9.20958 20.5706 9.45226 19.2002 9.8854 17.9148L2.30396 12.2512C0.82638 15.1861 -0.00610352 18.493 -0.00610352 22C-0.00610352 25.504 0.825356 28.8089 2.30089 31.7418L9.87823 26.0671C9.44919 24.7878 9.20958 23.4224 9.20958 22Z" fill="#FBBC05"/>
<path fill-rule="evenodd" clip-rule="evenodd" d="M22.5206 8.99627C25.6949 8.99627 28.562 10.0966 30.8148 11.8971L37.3681 5.49528C33.3747 2.09431 28.2548 -0.00628662 22.5206 -0.00628662C13.6183 -0.00628662 5.96721 4.97413 2.30347 12.2512L9.8849 17.9148C11.6318 12.7273 16.6113 8.99627 22.5206 8.99627Z" fill="#EB4335"/>
<path fill-rule="evenodd" clip-rule="evenodd" d="M22.5206 35.0037C16.6113 35.0037 11.6318 31.2726 9.8849 26.0851L2.30347 31.7478C5.96721 39.0258 13.6183 44.0062 22.5206 44.0062C28.0152 44.0062 33.261 42.0977 37.1982 38.5217L30.0017 33.0791C27.9712 34.3305 25.4144 35.0037 22.5206 35.0037Z" fill="#34A853"/>
<path fill-rule="evenodd" clip-rule="evenodd" d="M44.0243 22C44.0243 20.6996 43.8195 19.2992 43.5123 17.9988H22.521V26.5013H34.6038C33.9996 29.4001 32.3552 31.6287 30.0021 33.0791L37.1985 38.5217C41.3343 34.7666 44.0243 29.173 44.0243 22Z" fill="#4285F4"/>
</svg>
